<mxfile host="app.diagrams.net" modified="2023-12-12T05:44:28.364Z" agent="Mozilla/5.0 (Windows NT 10.0; Win64; x64) AppleWebKit/537.36 (KHTML, like Gecko) Chrome/120.0.0.0 Safari/537.36" etag="QdX9JlD017jaenVVPry9" version="22.1.7" type="github">
  <diagram name="ページ1" id="2kuhe6uimrM6sN_LJ3M2">
    <mxGraphModel dx="8436" dy="2736" grid="1" gridSize="10" guides="1" tooltips="1" connect="1" arrows="1" fold="1" page="1" pageScale="1" pageWidth="827" pageHeight="1169" math="0" shadow="0">
      <root>
        <mxCell id="0" />
        <mxCell id="1" parent="0" />
        <mxCell id="VksPfuCjbtP1_JWckjgD-1" value="" style="rounded=0;whiteSpace=wrap;html=1;fillColor=#f5f5f5;fontColor=#333333;strokeColor=#666666;" parent="1" vertex="1">
          <mxGeometry x="3680" y="150" width="3170" height="2470" as="geometry" />
        </mxCell>
        <mxCell id="VksPfuCjbtP1_JWckjgD-2" value="&lt;font style=&quot;font-size: 100px;&quot;&gt;ER図&lt;/font&gt;" style="rounded=1;whiteSpace=wrap;html=1;fontStyle=5" parent="1" vertex="1">
          <mxGeometry x="3720" y="100" width="430" height="160" as="geometry" />
        </mxCell>
        <mxCell id="VksPfuCjbtP1_JWckjgD-3" value="" style="rounded=0;whiteSpace=wrap;html=1;" parent="1" vertex="1">
          <mxGeometry x="3800" y="1560" width="2870" height="930" as="geometry" />
        </mxCell>
        <mxCell id="VksPfuCjbtP1_JWckjgD-4" value="" style="group" parent="1" vertex="1" connectable="0">
          <mxGeometry x="3810" y="410" width="2870" height="2190" as="geometry" />
        </mxCell>
        <mxCell id="VksPfuCjbtP1_JWckjgD-5" value="" style="rounded=0;whiteSpace=wrap;html=1;" parent="VksPfuCjbtP1_JWckjgD-4" vertex="1">
          <mxGeometry width="2870" height="930" as="geometry" />
        </mxCell>
        <mxCell id="VksPfuCjbtP1_JWckjgD-6" value="users" style="shape=table;startSize=30;container=1;collapsible=1;childLayout=tableLayout;fixedRows=1;rowLines=0;fontStyle=1;align=center;resizeLast=1;html=1;" parent="VksPfuCjbtP1_JWckjgD-4" vertex="1">
          <mxGeometry x="785" y="285" width="561" height="240" as="geometry" />
        </mxCell>
        <mxCell id="VksPfuCjbtP1_JWckjgD-7" value="" style="shape=tableRow;horizontal=0;startSize=0;swimlaneHead=0;swimlaneBody=0;fillColor=none;collapsible=0;dropTarget=0;points=[[0,0.5],[1,0.5]];portConstraint=eastwest;top=0;left=0;right=0;bottom=1;" parent="VksPfuCjbtP1_JWckjgD-6" vertex="1">
          <mxGeometry y="30" width="561" height="30" as="geometry" />
        </mxCell>
        <mxCell id="VksPfuCjbtP1_JWckjgD-8" value="PK" style="shape=partialRectangle;connectable=0;fillColor=none;top=0;left=0;bottom=0;right=0;fontStyle=1;overflow=hidden;whiteSpace=wrap;html=1;" parent="VksPfuCjbtP1_JWckjgD-7" vertex="1">
          <mxGeometry width="30" height="30" as="geometry">
            <mxRectangle width="30" height="30" as="alternateBounds" />
          </mxGeometry>
        </mxCell>
        <mxCell id="VksPfuCjbtP1_JWckjgD-9" value="id" style="shape=partialRectangle;connectable=0;fillColor=none;top=0;left=0;bottom=0;right=0;align=left;spacingLeft=6;fontStyle=5;overflow=hidden;whiteSpace=wrap;html=1;" parent="VksPfuCjbtP1_JWckjgD-7" vertex="1">
          <mxGeometry x="30" width="150" height="30" as="geometry">
            <mxRectangle width="150" height="30" as="alternateBounds" />
          </mxGeometry>
        </mxCell>
        <mxCell id="VksPfuCjbtP1_JWckjgD-10" value="Integer" style="shape=partialRectangle;connectable=0;fillColor=none;top=0;left=0;bottom=0;right=0;align=left;spacingLeft=6;fontStyle=5;overflow=hidden;whiteSpace=wrap;html=1;" parent="VksPfuCjbtP1_JWckjgD-7" vertex="1">
          <mxGeometry x="180" width="201" height="30" as="geometry">
            <mxRectangle width="201" height="30" as="alternateBounds" />
          </mxGeometry>
        </mxCell>
        <mxCell id="VksPfuCjbtP1_JWckjgD-11" value="Auto Increment" style="shape=partialRectangle;connectable=0;fillColor=none;top=0;left=0;bottom=0;right=0;align=left;spacingLeft=6;fontStyle=5;overflow=hidden;whiteSpace=wrap;html=1;" parent="VksPfuCjbtP1_JWckjgD-7" vertex="1">
          <mxGeometry x="381" width="180" height="30" as="geometry">
            <mxRectangle width="180" height="30" as="alternateBounds" />
          </mxGeometry>
        </mxCell>
        <mxCell id="VksPfuCjbtP1_JWckjgD-12" value="" style="shape=tableRow;horizontal=0;startSize=0;swimlaneHead=0;swimlaneBody=0;fillColor=none;collapsible=0;dropTarget=0;points=[[0,0.5],[1,0.5]];portConstraint=eastwest;top=0;left=0;right=0;bottom=0;" parent="VksPfuCjbtP1_JWckjgD-6" vertex="1">
          <mxGeometry y="60" width="561" height="30" as="geometry" />
        </mxCell>
        <mxCell id="VksPfuCjbtP1_JWckjgD-13" value="" style="shape=partialRectangle;connectable=0;fillColor=none;top=0;left=0;bottom=0;right=0;editable=1;overflow=hidden;whiteSpace=wrap;html=1;" parent="VksPfuCjbtP1_JWckjgD-12" vertex="1">
          <mxGeometry width="30" height="30" as="geometry">
            <mxRectangle width="30" height="30" as="alternateBounds" />
          </mxGeometry>
        </mxCell>
        <mxCell id="VksPfuCjbtP1_JWckjgD-14" value="device_id" style="shape=partialRectangle;connectable=0;fillColor=none;top=0;left=0;bottom=0;right=0;align=left;spacingLeft=6;overflow=hidden;whiteSpace=wrap;html=1;" parent="VksPfuCjbtP1_JWckjgD-12" vertex="1">
          <mxGeometry x="30" width="150" height="30" as="geometry">
            <mxRectangle width="150" height="30" as="alternateBounds" />
          </mxGeometry>
        </mxCell>
        <mxCell id="VksPfuCjbtP1_JWckjgD-15" value="VARCHAR(12)" style="shape=partialRectangle;connectable=0;fillColor=none;top=0;left=0;bottom=0;right=0;align=left;spacingLeft=6;overflow=hidden;whiteSpace=wrap;html=1;" parent="VksPfuCjbtP1_JWckjgD-12" vertex="1">
          <mxGeometry x="180" width="201" height="30" as="geometry">
            <mxRectangle width="201" height="30" as="alternateBounds" />
          </mxGeometry>
        </mxCell>
        <mxCell id="VksPfuCjbtP1_JWckjgD-16" value="Not Null , unique" style="shape=partialRectangle;connectable=0;fillColor=none;top=0;left=0;bottom=0;right=0;align=left;spacingLeft=6;overflow=hidden;whiteSpace=wrap;html=1;" parent="VksPfuCjbtP1_JWckjgD-12" vertex="1">
          <mxGeometry x="381" width="180" height="30" as="geometry">
            <mxRectangle width="180" height="30" as="alternateBounds" />
          </mxGeometry>
        </mxCell>
        <mxCell id="VksPfuCjbtP1_JWckjgD-17" style="shape=tableRow;horizontal=0;startSize=0;swimlaneHead=0;swimlaneBody=0;fillColor=none;collapsible=0;dropTarget=0;points=[[0,0.5],[1,0.5]];portConstraint=eastwest;top=0;left=0;right=0;bottom=0;" parent="VksPfuCjbtP1_JWckjgD-6" vertex="1">
          <mxGeometry y="90" width="561" height="30" as="geometry" />
        </mxCell>
        <mxCell id="VksPfuCjbtP1_JWckjgD-18" style="shape=partialRectangle;connectable=0;fillColor=none;top=0;left=0;bottom=0;right=0;editable=1;overflow=hidden;whiteSpace=wrap;html=1;" parent="VksPfuCjbtP1_JWckjgD-17" vertex="1">
          <mxGeometry width="30" height="30" as="geometry">
            <mxRectangle width="30" height="30" as="alternateBounds" />
          </mxGeometry>
        </mxCell>
        <mxCell id="VksPfuCjbtP1_JWckjgD-19" value="&lt;div&gt;&lt;span data-darkreader-inline-color=&quot;&quot; data-darkreader-inline-bgcolor=&quot;&quot; style=&quot;background-color: initial; color: rgb(0, 0, 0); --darkreader-inline-bgcolor: initial; --darkreader-inline-color: #dedcd9;&quot;&gt;name&lt;/span&gt;&lt;br&gt;&lt;/div&gt;" style="shape=partialRectangle;connectable=0;fillColor=none;top=0;left=0;bottom=0;right=0;align=left;spacingLeft=6;overflow=hidden;whiteSpace=wrap;html=1;" parent="VksPfuCjbtP1_JWckjgD-17" vertex="1">
          <mxGeometry x="30" width="150" height="30" as="geometry">
            <mxRectangle width="150" height="30" as="alternateBounds" />
          </mxGeometry>
        </mxCell>
        <mxCell id="VksPfuCjbtP1_JWckjgD-20" value="VARCHAR(24)" style="shape=partialRectangle;connectable=0;fillColor=none;top=0;left=0;bottom=0;right=0;align=left;spacingLeft=6;overflow=hidden;whiteSpace=wrap;html=1;" parent="VksPfuCjbtP1_JWckjgD-17" vertex="1">
          <mxGeometry x="180" width="201" height="30" as="geometry">
            <mxRectangle width="201" height="30" as="alternateBounds" />
          </mxGeometry>
        </mxCell>
        <mxCell id="VksPfuCjbtP1_JWckjgD-21" value="Not Null" style="shape=partialRectangle;connectable=0;fillColor=none;top=0;left=0;bottom=0;right=0;align=left;spacingLeft=6;overflow=hidden;whiteSpace=wrap;html=1;" parent="VksPfuCjbtP1_JWckjgD-17" vertex="1">
          <mxGeometry x="381" width="180" height="30" as="geometry">
            <mxRectangle width="180" height="30" as="alternateBounds" />
          </mxGeometry>
        </mxCell>
        <mxCell id="VksPfuCjbtP1_JWckjgD-22" style="shape=tableRow;horizontal=0;startSize=0;swimlaneHead=0;swimlaneBody=0;fillColor=none;collapsible=0;dropTarget=0;points=[[0,0.5],[1,0.5]];portConstraint=eastwest;top=0;left=0;right=0;bottom=0;" parent="VksPfuCjbtP1_JWckjgD-6" vertex="1">
          <mxGeometry y="120" width="561" height="30" as="geometry" />
        </mxCell>
        <mxCell id="VksPfuCjbtP1_JWckjgD-23" style="shape=partialRectangle;connectable=0;fillColor=none;top=0;left=0;bottom=0;right=0;editable=1;overflow=hidden;whiteSpace=wrap;html=1;" parent="VksPfuCjbtP1_JWckjgD-22" vertex="1">
          <mxGeometry width="30" height="30" as="geometry">
            <mxRectangle width="30" height="30" as="alternateBounds" />
          </mxGeometry>
        </mxCell>
        <mxCell id="VksPfuCjbtP1_JWckjgD-24" value="e-mail" style="shape=partialRectangle;connectable=0;fillColor=none;top=0;left=0;bottom=0;right=0;align=left;spacingLeft=6;overflow=hidden;whiteSpace=wrap;html=1;" parent="VksPfuCjbtP1_JWckjgD-22" vertex="1">
          <mxGeometry x="30" width="150" height="30" as="geometry">
            <mxRectangle width="150" height="30" as="alternateBounds" />
          </mxGeometry>
        </mxCell>
        <mxCell id="VksPfuCjbtP1_JWckjgD-25" value="VARCHAR(24)" style="shape=partialRectangle;connectable=0;fillColor=none;top=0;left=0;bottom=0;right=0;align=left;spacingLeft=6;overflow=hidden;whiteSpace=wrap;html=1;" parent="VksPfuCjbtP1_JWckjgD-22" vertex="1">
          <mxGeometry x="180" width="201" height="30" as="geometry">
            <mxRectangle width="201" height="30" as="alternateBounds" />
          </mxGeometry>
        </mxCell>
        <mxCell id="VksPfuCjbtP1_JWckjgD-26" value="Not Null , unique" style="shape=partialRectangle;connectable=0;fillColor=none;top=0;left=0;bottom=0;right=0;align=left;spacingLeft=6;overflow=hidden;whiteSpace=wrap;html=1;" parent="VksPfuCjbtP1_JWckjgD-22" vertex="1">
          <mxGeometry x="381" width="180" height="30" as="geometry">
            <mxRectangle width="180" height="30" as="alternateBounds" />
          </mxGeometry>
        </mxCell>
        <mxCell id="VksPfuCjbtP1_JWckjgD-27" value="" style="shape=tableRow;horizontal=0;startSize=0;swimlaneHead=0;swimlaneBody=0;fillColor=none;collapsible=0;dropTarget=0;points=[[0,0.5],[1,0.5]];portConstraint=eastwest;top=0;left=0;right=0;bottom=0;" parent="VksPfuCjbtP1_JWckjgD-6" vertex="1">
          <mxGeometry y="150" width="561" height="30" as="geometry" />
        </mxCell>
        <mxCell id="VksPfuCjbtP1_JWckjgD-28" value="" style="shape=partialRectangle;connectable=0;fillColor=none;top=0;left=0;bottom=0;right=0;editable=1;overflow=hidden;whiteSpace=wrap;html=1;" parent="VksPfuCjbtP1_JWckjgD-27" vertex="1">
          <mxGeometry width="30" height="30" as="geometry">
            <mxRectangle width="30" height="30" as="alternateBounds" />
          </mxGeometry>
        </mxCell>
        <mxCell id="VksPfuCjbtP1_JWckjgD-29" value="password" style="shape=partialRectangle;connectable=0;fillColor=none;top=0;left=0;bottom=0;right=0;align=left;spacingLeft=6;overflow=hidden;whiteSpace=wrap;html=1;" parent="VksPfuCjbtP1_JWckjgD-27" vertex="1">
          <mxGeometry x="30" width="150" height="30" as="geometry">
            <mxRectangle width="150" height="30" as="alternateBounds" />
          </mxGeometry>
        </mxCell>
        <mxCell id="VksPfuCjbtP1_JWckjgD-30" value="VARCHAR(12)" style="shape=partialRectangle;connectable=0;fillColor=none;top=0;left=0;bottom=0;right=0;align=left;spacingLeft=6;overflow=hidden;whiteSpace=wrap;html=1;" parent="VksPfuCjbtP1_JWckjgD-27" vertex="1">
          <mxGeometry x="180" width="201" height="30" as="geometry">
            <mxRectangle width="201" height="30" as="alternateBounds" />
          </mxGeometry>
        </mxCell>
        <mxCell id="VksPfuCjbtP1_JWckjgD-31" value="Not Null" style="shape=partialRectangle;connectable=0;fillColor=none;top=0;left=0;bottom=0;right=0;align=left;spacingLeft=6;overflow=hidden;whiteSpace=wrap;html=1;" parent="VksPfuCjbtP1_JWckjgD-27" vertex="1">
          <mxGeometry x="381" width="180" height="30" as="geometry">
            <mxRectangle width="180" height="30" as="alternateBounds" />
          </mxGeometry>
        </mxCell>
        <mxCell id="VksPfuCjbtP1_JWckjgD-32" style="shape=tableRow;horizontal=0;startSize=0;swimlaneHead=0;swimlaneBody=0;fillColor=none;collapsible=0;dropTarget=0;points=[[0,0.5],[1,0.5]];portConstraint=eastwest;top=0;left=0;right=0;bottom=0;" parent="VksPfuCjbtP1_JWckjgD-6" vertex="1">
          <mxGeometry y="180" width="561" height="30" as="geometry" />
        </mxCell>
        <mxCell id="VksPfuCjbtP1_JWckjgD-33" style="shape=partialRectangle;connectable=0;fillColor=none;top=0;left=0;bottom=0;right=0;editable=1;overflow=hidden;whiteSpace=wrap;html=1;" parent="VksPfuCjbtP1_JWckjgD-32" vertex="1">
          <mxGeometry width="30" height="30" as="geometry">
            <mxRectangle width="30" height="30" as="alternateBounds" />
          </mxGeometry>
        </mxCell>
        <mxCell id="VksPfuCjbtP1_JWckjgD-34" value="is_bot" style="shape=partialRectangle;connectable=0;fillColor=none;top=0;left=0;bottom=0;right=0;align=left;spacingLeft=6;overflow=hidden;whiteSpace=wrap;html=1;" parent="VksPfuCjbtP1_JWckjgD-32" vertex="1">
          <mxGeometry x="30" width="150" height="30" as="geometry">
            <mxRectangle width="150" height="30" as="alternateBounds" />
          </mxGeometry>
        </mxCell>
        <mxCell id="VksPfuCjbtP1_JWckjgD-35" value="BOOLEAN" style="shape=partialRectangle;connectable=0;fillColor=none;top=0;left=0;bottom=0;right=0;align=left;spacingLeft=6;overflow=hidden;whiteSpace=wrap;html=1;" parent="VksPfuCjbtP1_JWckjgD-32" vertex="1">
          <mxGeometry x="180" width="201" height="30" as="geometry">
            <mxRectangle width="201" height="30" as="alternateBounds" />
          </mxGeometry>
        </mxCell>
        <mxCell id="VksPfuCjbtP1_JWckjgD-36" value="Not Null, default:false" style="shape=partialRectangle;connectable=0;fillColor=none;top=0;left=0;bottom=0;right=0;align=left;spacingLeft=6;overflow=hidden;whiteSpace=wrap;html=1;" parent="VksPfuCjbtP1_JWckjgD-32" vertex="1">
          <mxGeometry x="381" width="180" height="30" as="geometry">
            <mxRectangle width="180" height="30" as="alternateBounds" />
          </mxGeometry>
        </mxCell>
        <mxCell id="VksPfuCjbtP1_JWckjgD-37" style="shape=tableRow;horizontal=0;startSize=0;swimlaneHead=0;swimlaneBody=0;fillColor=none;collapsible=0;dropTarget=0;points=[[0,0.5],[1,0.5]];portConstraint=eastwest;top=0;left=0;right=0;bottom=0;" parent="VksPfuCjbtP1_JWckjgD-6" vertex="1">
          <mxGeometry y="210" width="561" height="30" as="geometry" />
        </mxCell>
        <mxCell id="VksPfuCjbtP1_JWckjgD-38" style="shape=partialRectangle;connectable=0;fillColor=none;top=0;left=0;bottom=0;right=0;editable=1;overflow=hidden;whiteSpace=wrap;html=1;" parent="VksPfuCjbtP1_JWckjgD-37" vertex="1">
          <mxGeometry width="30" height="30" as="geometry">
            <mxRectangle width="30" height="30" as="alternateBounds" />
          </mxGeometry>
        </mxCell>
        <mxCell id="VksPfuCjbtP1_JWckjgD-39" value="create_at" style="shape=partialRectangle;connectable=0;fillColor=none;top=0;left=0;bottom=0;right=0;align=left;spacingLeft=6;overflow=hidden;whiteSpace=wrap;html=1;" parent="VksPfuCjbtP1_JWckjgD-37" vertex="1">
          <mxGeometry x="30" width="150" height="30" as="geometry">
            <mxRectangle width="150" height="30" as="alternateBounds" />
          </mxGeometry>
        </mxCell>
        <mxCell id="VksPfuCjbtP1_JWckjgD-40" value="TIMESTAMP" style="shape=partialRectangle;connectable=0;fillColor=none;top=0;left=0;bottom=0;right=0;align=left;spacingLeft=6;overflow=hidden;whiteSpace=wrap;html=1;" parent="VksPfuCjbtP1_JWckjgD-37" vertex="1">
          <mxGeometry x="180" width="201" height="30" as="geometry">
            <mxRectangle width="201" height="30" as="alternateBounds" />
          </mxGeometry>
        </mxCell>
        <mxCell id="VksPfuCjbtP1_JWckjgD-41" value="Default" style="shape=partialRectangle;connectable=0;fillColor=none;top=0;left=0;bottom=0;right=0;align=left;spacingLeft=6;overflow=hidden;whiteSpace=wrap;html=1;" parent="VksPfuCjbtP1_JWckjgD-37" vertex="1">
          <mxGeometry x="381" width="180" height="30" as="geometry">
            <mxRectangle width="180" height="30" as="alternateBounds" />
          </mxGeometry>
        </mxCell>
        <mxCell id="VksPfuCjbtP1_JWckjgD-42" value="settings" style="shape=table;startSize=30;container=1;collapsible=1;childLayout=tableLayout;fixedRows=1;rowLines=0;fontStyle=1;align=center;resizeLast=1;html=1;" parent="VksPfuCjbtP1_JWckjgD-4" vertex="1">
          <mxGeometry x="75" y="285" width="561" height="180" as="geometry" />
        </mxCell>
        <mxCell id="VksPfuCjbtP1_JWckjgD-43" value="" style="shape=tableRow;horizontal=0;startSize=0;swimlaneHead=0;swimlaneBody=0;fillColor=none;collapsible=0;dropTarget=0;points=[[0,0.5],[1,0.5]];portConstraint=eastwest;top=0;left=0;right=0;bottom=1;" parent="VksPfuCjbtP1_JWckjgD-42" vertex="1">
          <mxGeometry y="30" width="561" height="30" as="geometry" />
        </mxCell>
        <mxCell id="VksPfuCjbtP1_JWckjgD-44" value="PK" style="shape=partialRectangle;connectable=0;fillColor=none;top=0;left=0;bottom=0;right=0;fontStyle=1;overflow=hidden;whiteSpace=wrap;html=1;" parent="VksPfuCjbtP1_JWckjgD-43" vertex="1">
          <mxGeometry width="30" height="30" as="geometry">
            <mxRectangle width="30" height="30" as="alternateBounds" />
          </mxGeometry>
        </mxCell>
        <mxCell id="VksPfuCjbtP1_JWckjgD-45" value="id" style="shape=partialRectangle;connectable=0;fillColor=none;top=0;left=0;bottom=0;right=0;align=left;spacingLeft=6;fontStyle=5;overflow=hidden;whiteSpace=wrap;html=1;" parent="VksPfuCjbtP1_JWckjgD-43" vertex="1">
          <mxGeometry x="30" width="150" height="30" as="geometry">
            <mxRectangle width="150" height="30" as="alternateBounds" />
          </mxGeometry>
        </mxCell>
        <mxCell id="VksPfuCjbtP1_JWckjgD-46" value="INTEGER" style="shape=partialRectangle;connectable=0;fillColor=none;top=0;left=0;bottom=0;right=0;align=left;spacingLeft=6;fontStyle=5;overflow=hidden;whiteSpace=wrap;html=1;" parent="VksPfuCjbtP1_JWckjgD-43" vertex="1">
          <mxGeometry x="180" width="201" height="30" as="geometry">
            <mxRectangle width="201" height="30" as="alternateBounds" />
          </mxGeometry>
        </mxCell>
        <mxCell id="VksPfuCjbtP1_JWckjgD-47" value="Auto Increment" style="shape=partialRectangle;connectable=0;fillColor=none;top=0;left=0;bottom=0;right=0;align=left;spacingLeft=6;fontStyle=5;overflow=hidden;whiteSpace=wrap;html=1;" parent="VksPfuCjbtP1_JWckjgD-43" vertex="1">
          <mxGeometry x="381" width="180" height="30" as="geometry">
            <mxRectangle width="180" height="30" as="alternateBounds" />
          </mxGeometry>
        </mxCell>
        <mxCell id="VksPfuCjbtP1_JWckjgD-48" style="shape=tableRow;horizontal=0;startSize=0;swimlaneHead=0;swimlaneBody=0;fillColor=none;collapsible=0;dropTarget=0;points=[[0,0.5],[1,0.5]];portConstraint=eastwest;top=0;left=0;right=0;bottom=0;" parent="VksPfuCjbtP1_JWckjgD-42" vertex="1">
          <mxGeometry y="60" width="561" height="30" as="geometry" />
        </mxCell>
        <mxCell id="VksPfuCjbtP1_JWckjgD-49" value="FK" style="shape=partialRectangle;connectable=0;fillColor=none;top=0;left=0;bottom=0;right=0;editable=1;overflow=hidden;whiteSpace=wrap;html=1;" parent="VksPfuCjbtP1_JWckjgD-48" vertex="1">
          <mxGeometry width="30" height="30" as="geometry">
            <mxRectangle width="30" height="30" as="alternateBounds" />
          </mxGeometry>
        </mxCell>
        <mxCell id="VksPfuCjbtP1_JWckjgD-50" value="user_id" style="shape=partialRectangle;connectable=0;fillColor=none;top=0;left=0;bottom=0;right=0;align=left;spacingLeft=6;overflow=hidden;whiteSpace=wrap;html=1;" parent="VksPfuCjbtP1_JWckjgD-48" vertex="1">
          <mxGeometry x="30" width="150" height="30" as="geometry">
            <mxRectangle width="150" height="30" as="alternateBounds" />
          </mxGeometry>
        </mxCell>
        <mxCell id="VksPfuCjbtP1_JWckjgD-51" value="INTEGER" style="shape=partialRectangle;connectable=0;fillColor=none;top=0;left=0;bottom=0;right=0;align=left;spacingLeft=6;overflow=hidden;whiteSpace=wrap;html=1;" parent="VksPfuCjbtP1_JWckjgD-48" vertex="1">
          <mxGeometry x="180" width="201" height="30" as="geometry">
            <mxRectangle width="201" height="30" as="alternateBounds" />
          </mxGeometry>
        </mxCell>
        <mxCell id="VksPfuCjbtP1_JWckjgD-52" value="Not Null" style="shape=partialRectangle;connectable=0;fillColor=none;top=0;left=0;bottom=0;right=0;align=left;spacingLeft=6;overflow=hidden;whiteSpace=wrap;html=1;" parent="VksPfuCjbtP1_JWckjgD-48" vertex="1">
          <mxGeometry x="381" width="180" height="30" as="geometry">
            <mxRectangle width="180" height="30" as="alternateBounds" />
          </mxGeometry>
        </mxCell>
        <mxCell id="VksPfuCjbtP1_JWckjgD-53" style="shape=tableRow;horizontal=0;startSize=0;swimlaneHead=0;swimlaneBody=0;fillColor=none;collapsible=0;dropTarget=0;points=[[0,0.5],[1,0.5]];portConstraint=eastwest;top=0;left=0;right=0;bottom=0;" parent="VksPfuCjbtP1_JWckjgD-42" vertex="1">
          <mxGeometry y="90" width="561" height="30" as="geometry" />
        </mxCell>
        <mxCell id="VksPfuCjbtP1_JWckjgD-54" style="shape=partialRectangle;connectable=0;fillColor=none;top=0;left=0;bottom=0;right=0;editable=1;overflow=hidden;whiteSpace=wrap;html=1;" parent="VksPfuCjbtP1_JWckjgD-53" vertex="1">
          <mxGeometry width="30" height="30" as="geometry">
            <mxRectangle width="30" height="30" as="alternateBounds" />
          </mxGeometry>
        </mxCell>
        <mxCell id="VksPfuCjbtP1_JWckjgD-55" value="tomorrow_wake_up_time" style="shape=partialRectangle;connectable=0;fillColor=none;top=0;left=0;bottom=0;right=0;align=left;spacingLeft=6;overflow=hidden;whiteSpace=wrap;html=1;" parent="VksPfuCjbtP1_JWckjgD-53" vertex="1">
          <mxGeometry x="30" width="150" height="30" as="geometry">
            <mxRectangle width="150" height="30" as="alternateBounds" />
          </mxGeometry>
        </mxCell>
        <mxCell id="VksPfuCjbtP1_JWckjgD-56" value="TIME" style="shape=partialRectangle;connectable=0;fillColor=none;top=0;left=0;bottom=0;right=0;align=left;spacingLeft=6;overflow=hidden;whiteSpace=wrap;html=1;" parent="VksPfuCjbtP1_JWckjgD-53" vertex="1">
          <mxGeometry x="180" width="201" height="30" as="geometry">
            <mxRectangle width="201" height="30" as="alternateBounds" />
          </mxGeometry>
        </mxCell>
        <mxCell id="VksPfuCjbtP1_JWckjgD-57" value="Not Null" style="shape=partialRectangle;connectable=0;fillColor=none;top=0;left=0;bottom=0;right=0;align=left;spacingLeft=6;overflow=hidden;whiteSpace=wrap;html=1;" parent="VksPfuCjbtP1_JWckjgD-53" vertex="1">
          <mxGeometry x="381" width="180" height="30" as="geometry">
            <mxRectangle width="180" height="30" as="alternateBounds" />
          </mxGeometry>
        </mxCell>
        <mxCell id="VksPfuCjbtP1_JWckjgD-58" style="shape=tableRow;horizontal=0;startSize=0;swimlaneHead=0;swimlaneBody=0;fillColor=none;collapsible=0;dropTarget=0;points=[[0,0.5],[1,0.5]];portConstraint=eastwest;top=0;left=0;right=0;bottom=0;" parent="VksPfuCjbtP1_JWckjgD-42" vertex="1">
          <mxGeometry y="120" width="561" height="30" as="geometry" />
        </mxCell>
        <mxCell id="VksPfuCjbtP1_JWckjgD-59" style="shape=partialRectangle;connectable=0;fillColor=none;top=0;left=0;bottom=0;right=0;editable=1;overflow=hidden;whiteSpace=wrap;html=1;" parent="VksPfuCjbtP1_JWckjgD-58" vertex="1">
          <mxGeometry width="30" height="30" as="geometry">
            <mxRectangle width="30" height="30" as="alternateBounds" />
          </mxGeometry>
        </mxCell>
        <mxCell id="VksPfuCjbtP1_JWckjgD-60" value="yesterday_sleep_level" style="shape=partialRectangle;connectable=0;fillColor=none;top=0;left=0;bottom=0;right=0;align=left;spacingLeft=6;overflow=hidden;whiteSpace=wrap;html=1;" parent="VksPfuCjbtP1_JWckjgD-58" vertex="1">
          <mxGeometry x="30" width="150" height="30" as="geometry">
            <mxRectangle width="150" height="30" as="alternateBounds" />
          </mxGeometry>
        </mxCell>
        <mxCell id="VksPfuCjbtP1_JWckjgD-61" value="INTEGER" style="shape=partialRectangle;connectable=0;fillColor=none;top=0;left=0;bottom=0;right=0;align=left;spacingLeft=6;overflow=hidden;whiteSpace=wrap;html=1;" parent="VksPfuCjbtP1_JWckjgD-58" vertex="1">
          <mxGeometry x="180" width="201" height="30" as="geometry">
            <mxRectangle width="201" height="30" as="alternateBounds" />
          </mxGeometry>
        </mxCell>
        <mxCell id="VksPfuCjbtP1_JWckjgD-62" value="Not Null" style="shape=partialRectangle;connectable=0;fillColor=none;top=0;left=0;bottom=0;right=0;align=left;spacingLeft=6;overflow=hidden;whiteSpace=wrap;html=1;" parent="VksPfuCjbtP1_JWckjgD-58" vertex="1">
          <mxGeometry x="381" width="180" height="30" as="geometry">
            <mxRectangle width="180" height="30" as="alternateBounds" />
          </mxGeometry>
        </mxCell>
        <mxCell id="VksPfuCjbtP1_JWckjgD-63" value="" style="shape=tableRow;horizontal=0;startSize=0;swimlaneHead=0;swimlaneBody=0;fillColor=none;collapsible=0;dropTarget=0;points=[[0,0.5],[1,0.5]];portConstraint=eastwest;top=0;left=0;right=0;bottom=0;" parent="VksPfuCjbtP1_JWckjgD-42" vertex="1">
          <mxGeometry y="150" width="561" height="30" as="geometry" />
        </mxCell>
        <mxCell id="VksPfuCjbtP1_JWckjgD-64" value="" style="shape=partialRectangle;connectable=0;fillColor=none;top=0;left=0;bottom=0;right=0;editable=1;overflow=hidden;whiteSpace=wrap;html=1;" parent="VksPfuCjbtP1_JWckjgD-63" vertex="1">
          <mxGeometry width="30" height="30" as="geometry">
            <mxRectangle width="30" height="30" as="alternateBounds" />
          </mxGeometry>
        </mxCell>
        <mxCell id="VksPfuCjbtP1_JWckjgD-65" value="setting_at" style="shape=partialRectangle;connectable=0;fillColor=none;top=0;left=0;bottom=0;right=0;align=left;spacingLeft=6;overflow=hidden;whiteSpace=wrap;html=1;" parent="VksPfuCjbtP1_JWckjgD-63" vertex="1">
          <mxGeometry x="30" width="150" height="30" as="geometry">
            <mxRectangle width="150" height="30" as="alternateBounds" />
          </mxGeometry>
        </mxCell>
        <mxCell id="VksPfuCjbtP1_JWckjgD-66" value="TIMESTAMP" style="shape=partialRectangle;connectable=0;fillColor=none;top=0;left=0;bottom=0;right=0;align=left;spacingLeft=6;overflow=hidden;whiteSpace=wrap;html=1;" parent="VksPfuCjbtP1_JWckjgD-63" vertex="1">
          <mxGeometry x="180" width="201" height="30" as="geometry">
            <mxRectangle width="201" height="30" as="alternateBounds" />
          </mxGeometry>
        </mxCell>
        <mxCell id="VksPfuCjbtP1_JWckjgD-67" value="Default" style="shape=partialRectangle;connectable=0;fillColor=none;top=0;left=0;bottom=0;right=0;align=left;spacingLeft=6;overflow=hidden;whiteSpace=wrap;html=1;" parent="VksPfuCjbtP1_JWckjgD-63" vertex="1">
          <mxGeometry x="381" width="180" height="30" as="geometry">
            <mxRectangle width="180" height="30" as="alternateBounds" />
          </mxGeometry>
        </mxCell>
        <mxCell id="VksPfuCjbtP1_JWckjgD-68" value="clusters" style="shape=table;startSize=30;container=1;collapsible=1;childLayout=tableLayout;fixedRows=1;rowLines=0;fontStyle=1;align=center;resizeLast=1;html=1;" parent="VksPfuCjbtP1_JWckjgD-4" vertex="1">
          <mxGeometry x="2185" y="285" width="561" height="120" as="geometry" />
        </mxCell>
        <mxCell id="VksPfuCjbtP1_JWckjgD-69" value="" style="shape=tableRow;horizontal=0;startSize=0;swimlaneHead=0;swimlaneBody=0;fillColor=none;collapsible=0;dropTarget=0;points=[[0,0.5],[1,0.5]];portConstraint=eastwest;top=0;left=0;right=0;bottom=1;" parent="VksPfuCjbtP1_JWckjgD-68" vertex="1">
          <mxGeometry y="30" width="561" height="30" as="geometry" />
        </mxCell>
        <mxCell id="VksPfuCjbtP1_JWckjgD-70" value="PK" style="shape=partialRectangle;connectable=0;fillColor=none;top=0;left=0;bottom=0;right=0;fontStyle=1;overflow=hidden;whiteSpace=wrap;html=1;" parent="VksPfuCjbtP1_JWckjgD-69" vertex="1">
          <mxGeometry width="30" height="30" as="geometry">
            <mxRectangle width="30" height="30" as="alternateBounds" />
          </mxGeometry>
        </mxCell>
        <mxCell id="VksPfuCjbtP1_JWckjgD-71" value="id" style="shape=partialRectangle;connectable=0;fillColor=none;top=0;left=0;bottom=0;right=0;align=left;spacingLeft=6;fontStyle=5;overflow=hidden;whiteSpace=wrap;html=1;" parent="VksPfuCjbtP1_JWckjgD-69" vertex="1">
          <mxGeometry x="30" width="150" height="30" as="geometry">
            <mxRectangle width="150" height="30" as="alternateBounds" />
          </mxGeometry>
        </mxCell>
        <mxCell id="VksPfuCjbtP1_JWckjgD-72" value="INTEGER" style="shape=partialRectangle;connectable=0;fillColor=none;top=0;left=0;bottom=0;right=0;align=left;spacingLeft=6;fontStyle=5;overflow=hidden;whiteSpace=wrap;html=1;" parent="VksPfuCjbtP1_JWckjgD-69" vertex="1">
          <mxGeometry x="180" width="201" height="30" as="geometry">
            <mxRectangle width="201" height="30" as="alternateBounds" />
          </mxGeometry>
        </mxCell>
        <mxCell id="VksPfuCjbtP1_JWckjgD-73" value="Auto Increment" style="shape=partialRectangle;connectable=0;fillColor=none;top=0;left=0;bottom=0;right=0;align=left;spacingLeft=6;fontStyle=5;overflow=hidden;whiteSpace=wrap;html=1;" parent="VksPfuCjbtP1_JWckjgD-69" vertex="1">
          <mxGeometry x="381" width="180" height="30" as="geometry">
            <mxRectangle width="180" height="30" as="alternateBounds" />
          </mxGeometry>
        </mxCell>
        <mxCell id="VksPfuCjbtP1_JWckjgD-74" style="shape=tableRow;horizontal=0;startSize=0;swimlaneHead=0;swimlaneBody=0;fillColor=none;collapsible=0;dropTarget=0;points=[[0,0.5],[1,0.5]];portConstraint=eastwest;top=0;left=0;right=0;bottom=0;" parent="VksPfuCjbtP1_JWckjgD-68" vertex="1">
          <mxGeometry y="60" width="561" height="30" as="geometry" />
        </mxCell>
        <mxCell id="VksPfuCjbtP1_JWckjgD-75" style="shape=partialRectangle;connectable=0;fillColor=none;top=0;left=0;bottom=0;right=0;editable=1;overflow=hidden;whiteSpace=wrap;html=1;" parent="VksPfuCjbtP1_JWckjgD-74" vertex="1">
          <mxGeometry width="30" height="30" as="geometry">
            <mxRectangle width="30" height="30" as="alternateBounds" />
          </mxGeometry>
        </mxCell>
        <mxCell id="VksPfuCjbtP1_JWckjgD-76" value="&lt;div&gt;middle_wakeup_time&lt;/div&gt;" style="shape=partialRectangle;connectable=0;fillColor=none;top=0;left=0;bottom=0;right=0;align=left;spacingLeft=6;overflow=hidden;whiteSpace=wrap;html=1;" parent="VksPfuCjbtP1_JWckjgD-74" vertex="1">
          <mxGeometry x="30" width="150" height="30" as="geometry">
            <mxRectangle width="150" height="30" as="alternateBounds" />
          </mxGeometry>
        </mxCell>
        <mxCell id="VksPfuCjbtP1_JWckjgD-77" value="TIME" style="shape=partialRectangle;connectable=0;fillColor=none;top=0;left=0;bottom=0;right=0;align=left;spacingLeft=6;overflow=hidden;whiteSpace=wrap;html=1;" parent="VksPfuCjbtP1_JWckjgD-74" vertex="1">
          <mxGeometry x="180" width="201" height="30" as="geometry">
            <mxRectangle width="201" height="30" as="alternateBounds" />
          </mxGeometry>
        </mxCell>
        <mxCell id="VksPfuCjbtP1_JWckjgD-78" value="Not Null" style="shape=partialRectangle;connectable=0;fillColor=none;top=0;left=0;bottom=0;right=0;align=left;spacingLeft=6;overflow=hidden;whiteSpace=wrap;html=1;" parent="VksPfuCjbtP1_JWckjgD-74" vertex="1">
          <mxGeometry x="381" width="180" height="30" as="geometry">
            <mxRectangle width="180" height="30" as="alternateBounds" />
          </mxGeometry>
        </mxCell>
        <mxCell id="VksPfuCjbtP1_JWckjgD-79" value="" style="shape=tableRow;horizontal=0;startSize=0;swimlaneHead=0;swimlaneBody=0;fillColor=none;collapsible=0;dropTarget=0;points=[[0,0.5],[1,0.5]];portConstraint=eastwest;top=0;left=0;right=0;bottom=0;" parent="VksPfuCjbtP1_JWckjgD-68" vertex="1">
          <mxGeometry y="90" width="561" height="30" as="geometry" />
        </mxCell>
        <mxCell id="VksPfuCjbtP1_JWckjgD-80" value="" style="shape=partialRectangle;connectable=0;fillColor=none;top=0;left=0;bottom=0;right=0;editable=1;overflow=hidden;whiteSpace=wrap;html=1;" parent="VksPfuCjbtP1_JWckjgD-79" vertex="1">
          <mxGeometry width="30" height="30" as="geometry">
            <mxRectangle width="30" height="30" as="alternateBounds" />
          </mxGeometry>
        </mxCell>
        <mxCell id="VksPfuCjbtP1_JWckjgD-81" value="create_at" style="shape=partialRectangle;connectable=0;fillColor=none;top=0;left=0;bottom=0;right=0;align=left;spacingLeft=6;overflow=hidden;whiteSpace=wrap;html=1;" parent="VksPfuCjbtP1_JWckjgD-79" vertex="1">
          <mxGeometry x="30" width="150" height="30" as="geometry">
            <mxRectangle width="150" height="30" as="alternateBounds" />
          </mxGeometry>
        </mxCell>
        <mxCell id="VksPfuCjbtP1_JWckjgD-82" value="DATE" style="shape=partialRectangle;connectable=0;fillColor=none;top=0;left=0;bottom=0;right=0;align=left;spacingLeft=6;overflow=hidden;whiteSpace=wrap;html=1;" parent="VksPfuCjbtP1_JWckjgD-79" vertex="1">
          <mxGeometry x="180" width="201" height="30" as="geometry">
            <mxRectangle width="201" height="30" as="alternateBounds" />
          </mxGeometry>
        </mxCell>
        <mxCell id="VksPfuCjbtP1_JWckjgD-83" value="Default" style="shape=partialRectangle;connectable=0;fillColor=none;top=0;left=0;bottom=0;right=0;align=left;spacingLeft=6;overflow=hidden;whiteSpace=wrap;html=1;" parent="VksPfuCjbtP1_JWckjgD-79" vertex="1">
          <mxGeometry x="381" width="180" height="30" as="geometry">
            <mxRectangle width="180" height="30" as="alternateBounds" />
          </mxGeometry>
        </mxCell>
        <mxCell id="VksPfuCjbtP1_JWckjgD-84" value="&lt;h1&gt;備考&lt;/h1&gt;&lt;p style=&quot;font-size: 17px;&quot;&gt;クラスターは毎日変動するが、古いデータも保持する。→削除の手間を考えなくていい＆過去のデータを参照可能&lt;/p&gt;&lt;p style=&quot;font-size: 17px;&quot;&gt;userが現在所属するクラスターは中間テーブルで任意のuser_idを参照しタイムスタンプが最新のものを選択することで一意に定まる。&lt;/p&gt;&lt;p style=&quot;font-size: 17px;&quot;&gt;middle_wakeup_timeには、そのクラスターに所属するユーザーのアラームの設定時刻の平均を格納→システムが根に配置されたユーザーのアラームを鳴らす時刻として使用&lt;br&gt;&lt;/p&gt;" style="text;html=1;strokeColor=none;fillColor=none;spacing=5;spacingTop=-20;whiteSpace=wrap;overflow=hidden;rounded=0;" parent="VksPfuCjbtP1_JWckjgD-4" vertex="1">
          <mxGeometry x="2325" y="480" width="350" height="460" as="geometry" />
        </mxCell>
        <mxCell id="VksPfuCjbtP1_JWckjgD-85" value="&lt;h1&gt;備考&lt;/h1&gt;&lt;p style=&quot;font-size: 17px;&quot;&gt;前日の快眠度を入力したあとに、時刻設定欄が出現orバリデーションで快眠度の入力を強制&lt;/p&gt;&lt;p style=&quot;font-size: 17px;&quot;&gt;タイムスタンプが最新のものを適用&lt;br&gt;&lt;br&gt;yesterday_sleep_levelは①良い②普通③悪い&lt;br&gt;の三種類。平均値をとるためEnum型ではなく整数型を使用&lt;/p&gt;" style="text;html=1;strokeColor=none;fillColor=none;spacing=5;spacingTop=-20;whiteSpace=wrap;overflow=hidden;rounded=0;" parent="VksPfuCjbtP1_JWckjgD-4" vertex="1">
          <mxGeometry x="73" y="500" width="390" height="310" as="geometry" />
        </mxCell>
        <mxCell id="VksPfuCjbtP1_JWckjgD-86" value="cluster_user" style="shape=table;startSize=30;container=1;collapsible=1;childLayout=tableLayout;fixedRows=1;rowLines=0;fontStyle=1;align=center;resizeLast=1;html=1;" parent="VksPfuCjbtP1_JWckjgD-4" vertex="1">
          <mxGeometry x="1485" y="285" width="561" height="150" as="geometry" />
        </mxCell>
        <mxCell id="VksPfuCjbtP1_JWckjgD-87" value="" style="shape=tableRow;horizontal=0;startSize=0;swimlaneHead=0;swimlaneBody=0;fillColor=none;collapsible=0;dropTarget=0;points=[[0,0.5],[1,0.5]];portConstraint=eastwest;top=0;left=0;right=0;bottom=1;" parent="VksPfuCjbtP1_JWckjgD-86" vertex="1">
          <mxGeometry y="30" width="561" height="30" as="geometry" />
        </mxCell>
        <mxCell id="VksPfuCjbtP1_JWckjgD-88" value="PK" style="shape=partialRectangle;connectable=0;fillColor=none;top=0;left=0;bottom=0;right=0;fontStyle=1;overflow=hidden;whiteSpace=wrap;html=1;" parent="VksPfuCjbtP1_JWckjgD-87" vertex="1">
          <mxGeometry width="30" height="30" as="geometry">
            <mxRectangle width="30" height="30" as="alternateBounds" />
          </mxGeometry>
        </mxCell>
        <mxCell id="VksPfuCjbtP1_JWckjgD-89" value="id" style="shape=partialRectangle;connectable=0;fillColor=none;top=0;left=0;bottom=0;right=0;align=left;spacingLeft=6;fontStyle=5;overflow=hidden;whiteSpace=wrap;html=1;" parent="VksPfuCjbtP1_JWckjgD-87" vertex="1">
          <mxGeometry x="30" width="150" height="30" as="geometry">
            <mxRectangle width="150" height="30" as="alternateBounds" />
          </mxGeometry>
        </mxCell>
        <mxCell id="VksPfuCjbtP1_JWckjgD-90" value="INTEGER" style="shape=partialRectangle;connectable=0;fillColor=none;top=0;left=0;bottom=0;right=0;align=left;spacingLeft=6;fontStyle=5;overflow=hidden;whiteSpace=wrap;html=1;" parent="VksPfuCjbtP1_JWckjgD-87" vertex="1">
          <mxGeometry x="180" width="201" height="30" as="geometry">
            <mxRectangle width="201" height="30" as="alternateBounds" />
          </mxGeometry>
        </mxCell>
        <mxCell id="VksPfuCjbtP1_JWckjgD-91" value="Auto Increment" style="shape=partialRectangle;connectable=0;fillColor=none;top=0;left=0;bottom=0;right=0;align=left;spacingLeft=6;fontStyle=5;overflow=hidden;whiteSpace=wrap;html=1;" parent="VksPfuCjbtP1_JWckjgD-87" vertex="1">
          <mxGeometry x="381" width="180" height="30" as="geometry">
            <mxRectangle width="180" height="30" as="alternateBounds" />
          </mxGeometry>
        </mxCell>
        <mxCell id="VksPfuCjbtP1_JWckjgD-92" style="shape=tableRow;horizontal=0;startSize=0;swimlaneHead=0;swimlaneBody=0;fillColor=none;collapsible=0;dropTarget=0;points=[[0,0.5],[1,0.5]];portConstraint=eastwest;top=0;left=0;right=0;bottom=0;" parent="VksPfuCjbtP1_JWckjgD-86" vertex="1">
          <mxGeometry y="60" width="561" height="30" as="geometry" />
        </mxCell>
        <mxCell id="VksPfuCjbtP1_JWckjgD-93" value="FK" style="shape=partialRectangle;connectable=0;fillColor=none;top=0;left=0;bottom=0;right=0;editable=1;overflow=hidden;whiteSpace=wrap;html=1;" parent="VksPfuCjbtP1_JWckjgD-92" vertex="1">
          <mxGeometry width="30" height="30" as="geometry">
            <mxRectangle width="30" height="30" as="alternateBounds" />
          </mxGeometry>
        </mxCell>
        <mxCell id="VksPfuCjbtP1_JWckjgD-94" value="&lt;div&gt;user_id&lt;/div&gt;" style="shape=partialRectangle;connectable=0;fillColor=none;top=0;left=0;bottom=0;right=0;align=left;spacingLeft=6;overflow=hidden;whiteSpace=wrap;html=1;" parent="VksPfuCjbtP1_JWckjgD-92" vertex="1">
          <mxGeometry x="30" width="150" height="30" as="geometry">
            <mxRectangle width="150" height="30" as="alternateBounds" />
          </mxGeometry>
        </mxCell>
        <mxCell id="VksPfuCjbtP1_JWckjgD-95" value="INTEGER" style="shape=partialRectangle;connectable=0;fillColor=none;top=0;left=0;bottom=0;right=0;align=left;spacingLeft=6;overflow=hidden;whiteSpace=wrap;html=1;" parent="VksPfuCjbtP1_JWckjgD-92" vertex="1">
          <mxGeometry x="180" width="201" height="30" as="geometry">
            <mxRectangle width="201" height="30" as="alternateBounds" />
          </mxGeometry>
        </mxCell>
        <mxCell id="VksPfuCjbtP1_JWckjgD-96" value="Not Null" style="shape=partialRectangle;connectable=0;fillColor=none;top=0;left=0;bottom=0;right=0;align=left;spacingLeft=6;overflow=hidden;whiteSpace=wrap;html=1;" parent="VksPfuCjbtP1_JWckjgD-92" vertex="1">
          <mxGeometry x="381" width="180" height="30" as="geometry">
            <mxRectangle width="180" height="30" as="alternateBounds" />
          </mxGeometry>
        </mxCell>
        <mxCell id="VksPfuCjbtP1_JWckjgD-97" value="" style="shape=tableRow;horizontal=0;startSize=0;swimlaneHead=0;swimlaneBody=0;fillColor=none;collapsible=0;dropTarget=0;points=[[0,0.5],[1,0.5]];portConstraint=eastwest;top=0;left=0;right=0;bottom=0;" parent="VksPfuCjbtP1_JWckjgD-86" vertex="1">
          <mxGeometry y="90" width="561" height="30" as="geometry" />
        </mxCell>
        <mxCell id="VksPfuCjbtP1_JWckjgD-98" value="FK" style="shape=partialRectangle;connectable=0;fillColor=none;top=0;left=0;bottom=0;right=0;editable=1;overflow=hidden;whiteSpace=wrap;html=1;" parent="VksPfuCjbtP1_JWckjgD-97" vertex="1">
          <mxGeometry width="30" height="30" as="geometry">
            <mxRectangle width="30" height="30" as="alternateBounds" />
          </mxGeometry>
        </mxCell>
        <mxCell id="VksPfuCjbtP1_JWckjgD-99" value="cluster_id" style="shape=partialRectangle;connectable=0;fillColor=none;top=0;left=0;bottom=0;right=0;align=left;spacingLeft=6;overflow=hidden;whiteSpace=wrap;html=1;" parent="VksPfuCjbtP1_JWckjgD-97" vertex="1">
          <mxGeometry x="30" width="150" height="30" as="geometry">
            <mxRectangle width="150" height="30" as="alternateBounds" />
          </mxGeometry>
        </mxCell>
        <mxCell id="VksPfuCjbtP1_JWckjgD-100" value="INTEGER" style="shape=partialRectangle;connectable=0;fillColor=none;top=0;left=0;bottom=0;right=0;align=left;spacingLeft=6;overflow=hidden;whiteSpace=wrap;html=1;" parent="VksPfuCjbtP1_JWckjgD-97" vertex="1">
          <mxGeometry x="180" width="201" height="30" as="geometry">
            <mxRectangle width="201" height="30" as="alternateBounds" />
          </mxGeometry>
        </mxCell>
        <mxCell id="VksPfuCjbtP1_JWckjgD-101" value="Not Null" style="shape=partialRectangle;connectable=0;fillColor=none;top=0;left=0;bottom=0;right=0;align=left;spacingLeft=6;overflow=hidden;whiteSpace=wrap;html=1;" parent="VksPfuCjbtP1_JWckjgD-97" vertex="1">
          <mxGeometry x="381" width="180" height="30" as="geometry">
            <mxRectangle width="180" height="30" as="alternateBounds" />
          </mxGeometry>
        </mxCell>
        <mxCell id="VksPfuCjbtP1_JWckjgD-102" style="shape=tableRow;horizontal=0;startSize=0;swimlaneHead=0;swimlaneBody=0;fillColor=none;collapsible=0;dropTarget=0;points=[[0,0.5],[1,0.5]];portConstraint=eastwest;top=0;left=0;right=0;bottom=0;" parent="VksPfuCjbtP1_JWckjgD-86" vertex="1">
          <mxGeometry y="120" width="561" height="30" as="geometry" />
        </mxCell>
        <mxCell id="VksPfuCjbtP1_JWckjgD-103" style="shape=partialRectangle;connectable=0;fillColor=none;top=0;left=0;bottom=0;right=0;editable=1;overflow=hidden;whiteSpace=wrap;html=1;" parent="VksPfuCjbtP1_JWckjgD-102" vertex="1">
          <mxGeometry width="30" height="30" as="geometry">
            <mxRectangle width="30" height="30" as="alternateBounds" />
          </mxGeometry>
        </mxCell>
        <mxCell id="VksPfuCjbtP1_JWckjgD-104" value="create_at" style="shape=partialRectangle;connectable=0;fillColor=none;top=0;left=0;bottom=0;right=0;align=left;spacingLeft=6;overflow=hidden;whiteSpace=wrap;html=1;" parent="VksPfuCjbtP1_JWckjgD-102" vertex="1">
          <mxGeometry x="30" width="150" height="30" as="geometry">
            <mxRectangle width="150" height="30" as="alternateBounds" />
          </mxGeometry>
        </mxCell>
        <mxCell id="VksPfuCjbtP1_JWckjgD-105" value="DATE" style="shape=partialRectangle;connectable=0;fillColor=none;top=0;left=0;bottom=0;right=0;align=left;spacingLeft=6;overflow=hidden;whiteSpace=wrap;html=1;" parent="VksPfuCjbtP1_JWckjgD-102" vertex="1">
          <mxGeometry x="180" width="201" height="30" as="geometry">
            <mxRectangle width="201" height="30" as="alternateBounds" />
          </mxGeometry>
        </mxCell>
        <mxCell id="VksPfuCjbtP1_JWckjgD-106" value="Default" style="shape=partialRectangle;connectable=0;fillColor=none;top=0;left=0;bottom=0;right=0;align=left;spacingLeft=6;overflow=hidden;whiteSpace=wrap;html=1;" parent="VksPfuCjbtP1_JWckjgD-102" vertex="1">
          <mxGeometry x="381" width="180" height="30" as="geometry">
            <mxRectangle width="180" height="30" as="alternateBounds" />
          </mxGeometry>
        </mxCell>
        <mxCell id="VksPfuCjbtP1_JWckjgD-107" value="&lt;h1&gt;備考&lt;/h1&gt;&lt;p style=&quot;font-size: 17px;&quot;&gt;中間テーブル、フレームワークやライブラリに命名規則が設定されている場合あり。&lt;/p&gt;&lt;p style=&quot;font-size: 17px;&quot;&gt;接続①＿接続②（abc順）など&lt;/p&gt;" style="text;html=1;strokeColor=none;fillColor=none;spacing=5;spacingTop=-20;whiteSpace=wrap;overflow=hidden;rounded=0;" parent="VksPfuCjbtP1_JWckjgD-4" vertex="1">
          <mxGeometry x="1555" y="490" width="350" height="240" as="geometry" />
        </mxCell>
        <mxCell id="VksPfuCjbtP1_JWckjgD-108" value="&lt;h1&gt;注意&lt;/h1&gt;&lt;p style=&quot;&quot;&gt;create_atなどで、制約にdefaultと指定されている場合は、以下の制約を適用&lt;/p&gt;&lt;p style=&quot;&quot;&gt;&lt;br&gt;DEFAULT CURRENT_TIMESTAMP ON UPDATE CURRENT_TIMESTAMP&lt;br&gt;&lt;/p&gt;" style="text;html=1;strokeColor=none;fillColor=none;spacing=5;spacingTop=-20;whiteSpace=wrap;overflow=hidden;rounded=0;" parent="VksPfuCjbtP1_JWckjgD-4" vertex="1">
          <mxGeometry x="73" y="100" width="350" height="240" as="geometry" />
        </mxCell>
        <mxCell id="VksPfuCjbtP1_JWckjgD-109" value="&lt;h1&gt;備考&lt;/h1&gt;&lt;p style=&quot;font-size: 17px;&quot;&gt;ログインにはemailとパスワードを使用&lt;/p&gt;&lt;p style=&quot;font-size: 17px;&quot;&gt;&lt;br&gt;&lt;/p&gt;" style="text;html=1;strokeColor=none;fillColor=none;spacing=5;spacingTop=-20;whiteSpace=wrap;overflow=hidden;rounded=0;" parent="VksPfuCjbtP1_JWckjgD-4" vertex="1">
          <mxGeometry x="845" y="580" width="390" height="310" as="geometry" />
        </mxCell>
        <mxCell id="VksPfuCjbtP1_JWckjgD-110" value="" style="edgeStyle=entityRelationEdgeStyle;fontSize=12;html=1;endArrow=ERoneToMany;rounded=0;" parent="VksPfuCjbtP1_JWckjgD-4" source="VksPfuCjbtP1_JWckjgD-6" target="VksPfuCjbtP1_JWckjgD-42" edge="1">
          <mxGeometry width="100" height="100" relative="1" as="geometry">
            <mxPoint x="625" y="525" as="sourcePoint" />
            <mxPoint x="725" y="425" as="targetPoint" />
          </mxGeometry>
        </mxCell>
        <mxCell id="VksPfuCjbtP1_JWckjgD-111" value="" style="edgeStyle=entityRelationEdgeStyle;fontSize=12;html=1;endArrow=ERoneToMany;startArrow=ERmandOne;rounded=0;" parent="VksPfuCjbtP1_JWckjgD-4" source="VksPfuCjbtP1_JWckjgD-6" target="VksPfuCjbtP1_JWckjgD-86" edge="1">
          <mxGeometry width="100" height="100" relative="1" as="geometry">
            <mxPoint x="1385" y="360" as="sourcePoint" />
            <mxPoint x="1485" y="260" as="targetPoint" />
          </mxGeometry>
        </mxCell>
        <mxCell id="VksPfuCjbtP1_JWckjgD-112" value="" style="edgeStyle=entityRelationEdgeStyle;fontSize=12;html=1;endArrow=ERoneToMany;startArrow=ERmandOne;rounded=0;" parent="VksPfuCjbtP1_JWckjgD-4" source="VksPfuCjbtP1_JWckjgD-68" target="VksPfuCjbtP1_JWckjgD-86" edge="1">
          <mxGeometry width="100" height="100" relative="1" as="geometry">
            <mxPoint x="2046" y="375" as="sourcePoint" />
            <mxPoint x="2185" y="330" as="targetPoint" />
          </mxGeometry>
        </mxCell>
        <mxCell id="VksPfuCjbtP1_JWckjgD-113" value="&lt;h1&gt;注意&lt;/h1&gt;&lt;p style=&quot;&quot;&gt;userテーブルとclusterテーブルは多対多の関係&lt;/p&gt;&lt;p style=&quot;&quot;&gt;&lt;br&gt;アソシエーションテーブルを用いてモデルに関係性を定義&lt;br&gt;&lt;/p&gt;" style="text;html=1;strokeColor=none;fillColor=none;spacing=5;spacingTop=-20;whiteSpace=wrap;overflow=hidden;rounded=0;" parent="VksPfuCjbtP1_JWckjgD-4" vertex="1">
          <mxGeometry x="495" y="100" width="350" height="150" as="geometry" />
        </mxCell>
        <mxCell id="VksPfuCjbtP1_JWckjgD-114" value="&lt;font style=&quot;font-size: 30px;&quot;&gt;アプリケーション側&lt;/font&gt;" style="rounded=1;whiteSpace=wrap;html=1;fontStyle=5" parent="VksPfuCjbtP1_JWckjgD-4" vertex="1">
          <mxGeometry x="10" y="10" width="289" height="70" as="geometry" />
        </mxCell>
        <mxCell id="VksPfuCjbtP1_JWckjgD-115" value="&lt;span style=&quot;font-size: 30px;&quot;&gt;Iot Device API側&lt;/span&gt;" style="rounded=1;whiteSpace=wrap;html=1;fontStyle=5" parent="1" vertex="1">
          <mxGeometry x="3820" y="1580" width="289" height="70" as="geometry" />
        </mxCell>
        <mxCell id="VksPfuCjbtP1_JWckjgD-116" value="" style="rounded=0;whiteSpace=wrap;html=1;fillColor=#f5f5f5;fontColor=#333333;strokeColor=#666666;" parent="1" vertex="1">
          <mxGeometry x="-5640" y="-295" width="3170" height="2470" as="geometry" />
        </mxCell>
        <mxCell id="VksPfuCjbtP1_JWckjgD-117" value="&lt;font style=&quot;font-size: 70px;&quot;&gt;大まかなシステム構成図&lt;/font&gt;" style="rounded=1;whiteSpace=wrap;html=1;fontStyle=5" parent="1" vertex="1">
          <mxGeometry x="60" y="40" width="1120" height="180" as="geometry" />
        </mxCell>
        <mxCell id="VksPfuCjbtP1_JWckjgD-118" value="" style="rounded=0;whiteSpace=wrap;html=1;" parent="1" vertex="1">
          <mxGeometry x="310" y="535" width="1000" height="610" as="geometry" />
        </mxCell>
        <mxCell id="VksPfuCjbtP1_JWckjgD-119" value="&lt;b&gt;&lt;font style=&quot;font-size: 30px;&quot;&gt;定期実行デーモン&lt;/font&gt;&lt;/b&gt;" style="rounded=0;whiteSpace=wrap;html=1;" parent="1" vertex="1">
          <mxGeometry x="310" y="535" width="260" height="70" as="geometry" />
        </mxCell>
        <mxCell id="VksPfuCjbtP1_JWckjgD-120" value="&lt;h1&gt;&lt;span style=&quot;font-size: 35px;&quot;&gt;目的&lt;/span&gt;&lt;/h1&gt;&lt;p&gt;&lt;span style=&quot;font-size: 24px;&quot;&gt;毎朝のルートユーザーを起こす処理や、クラスタリングなど、特定の時刻にプログラムが起動しなければいけない場合に、APIのトリガーとして処理系統にリクエストを行う。&lt;/span&gt;&lt;/p&gt;" style="text;html=1;strokeColor=none;fillColor=none;spacing=5;spacingTop=-20;whiteSpace=wrap;overflow=hidden;rounded=0;" parent="1" vertex="1">
          <mxGeometry x="350" y="635" width="350" height="260" as="geometry" />
        </mxCell>
        <mxCell id="VksPfuCjbtP1_JWckjgD-121" value="&lt;h1&gt;&lt;span style=&quot;font-size: 35px;&quot;&gt;環境&lt;/span&gt;&lt;/h1&gt;&lt;p&gt;&lt;span style=&quot;font-size: 24px;&quot;&gt;アプリケーション側のdockerコンテナでlinuxコマンドによりpythonファイルを起動 or Aws event Bridgeにてlambda関数を実行&lt;br&gt;&lt;/span&gt;&lt;/p&gt;" style="text;html=1;strokeColor=none;fillColor=none;spacing=5;spacingTop=-20;whiteSpace=wrap;overflow=hidden;rounded=0;" parent="1" vertex="1">
          <mxGeometry x="350" y="905" width="350" height="200" as="geometry" />
        </mxCell>
        <mxCell id="VksPfuCjbtP1_JWckjgD-122" value="&lt;h1&gt;&lt;span style=&quot;font-size: 35px;&quot;&gt;仕様&lt;/span&gt;&lt;/h1&gt;&lt;p&gt;&lt;font style=&quot;font-size: 24px;&quot;&gt;&lt;u&gt;起動時刻設定&lt;/u&gt;&lt;/font&gt;&lt;/p&gt;&lt;p&gt;&lt;font style=&quot;font-size: 12px;&quot;&gt;アプリケーション側から定期実行の時刻を編集できるようにする。APIとして時刻を受け取るエンドポイントを作るか、時刻設定用のデータベースを設置し、アプリケーション側から接続・編集できるようにする。&lt;/font&gt;&lt;/p&gt;&lt;p&gt;&lt;font style=&quot;font-size: 24px;&quot;&gt;&lt;u&gt;クラスタリング依頼&lt;/u&gt;&lt;/font&gt;&lt;/p&gt;&lt;p&gt;アラームの設定時刻をもとに、ユーザーをクラスタリングするようにFlaskアプリケーション側に通知する。&lt;/p&gt;&lt;p&gt;&lt;font style=&quot;font-size: 24px;&quot;&gt;&lt;u&gt;ルートユーザー起床依頼&lt;/u&gt;&lt;/font&gt;&lt;/p&gt;&lt;p&gt;&lt;font style=&quot;font-size: 12px;&quot;&gt;各クラスターに設定された起床時刻(middle_wakeup_time)になると、FlaskAPI側にルートユーザーを起こすことを通知、&lt;br&gt;ここで初めてFlaskAPI側の木構造をたどってユーザーを起こしていくプログラムが起動&lt;/font&gt;&lt;/p&gt;" style="text;html=1;strokeColor=none;fillColor=none;spacing=5;spacingTop=-20;whiteSpace=wrap;overflow=hidden;rounded=0;" parent="1" vertex="1">
          <mxGeometry x="840" y="635" width="350" height="450" as="geometry" />
        </mxCell>
        <mxCell id="VksPfuCjbtP1_JWckjgD-123" value="" style="rounded=0;whiteSpace=wrap;html=1;" parent="1" vertex="1">
          <mxGeometry x="310" y="1625" width="1000" height="610" as="geometry" />
        </mxCell>
        <mxCell id="VksPfuCjbtP1_JWckjgD-124" value="&lt;b&gt;&lt;font style=&quot;font-size: 30px;&quot;&gt;Iot Device API&lt;/font&gt;&lt;/b&gt;" style="rounded=0;whiteSpace=wrap;html=1;" parent="1" vertex="1">
          <mxGeometry x="310" y="1625" width="260" height="70" as="geometry" />
        </mxCell>
        <mxCell id="VksPfuCjbtP1_JWckjgD-125" value="&lt;h1&gt;&lt;span style=&quot;font-size: 35px;&quot;&gt;目的&lt;/span&gt;&lt;/h1&gt;&lt;p&gt;&lt;span style=&quot;font-size: 24px;&quot;&gt;実機の仕様を考えずにFlaskアプリケーションを動かすために、独立したAPIとしてユーザーの状態を提供 and 実機への指示を受け取る。&lt;/span&gt;&lt;/p&gt;" style="text;html=1;strokeColor=none;fillColor=none;spacing=5;spacingTop=-20;whiteSpace=wrap;overflow=hidden;rounded=0;" parent="1" vertex="1">
          <mxGeometry x="350" y="1725" width="350" height="260" as="geometry" />
        </mxCell>
        <mxCell id="VksPfuCjbtP1_JWckjgD-126" value="&lt;h1&gt;&lt;span style=&quot;font-size: 35px;&quot;&gt;環境&lt;/span&gt;&lt;/h1&gt;&lt;p&gt;&lt;font style=&quot;font-size: 24px;&quot;&gt;aws上で&lt;/font&gt;&lt;/p&gt;&lt;p&gt;&lt;font style=&quot;font-size: 24px;&quot;&gt;IotCore,DataStream,Lambda,&lt;/font&gt;&lt;/p&gt;&lt;p&gt;&lt;span style=&quot;font-size: 24px; background-color: initial;&quot;&gt;DynamoDBを用いて実装　詳しくはaws公式ハンズオンを参照&lt;/span&gt;&lt;/p&gt;" style="text;html=1;strokeColor=none;fillColor=none;spacing=5;spacingTop=-20;whiteSpace=wrap;overflow=hidden;rounded=0;" parent="1" vertex="1">
          <mxGeometry x="350" y="1995" width="350" height="200" as="geometry" />
        </mxCell>
        <mxCell id="VksPfuCjbtP1_JWckjgD-127" value="&lt;h1&gt;&lt;span style=&quot;font-size: 35px;&quot;&gt;仕様&lt;/span&gt;&lt;/h1&gt;&lt;p&gt;&lt;font style=&quot;font-size: 24px;&quot;&gt;&lt;u&gt;起あ&lt;/u&gt;&lt;/font&gt;&lt;/p&gt;&lt;p&gt;&lt;font style=&quot;font-size: 12px;&quot;&gt;アプリケーション側から定期実行の時刻を編集できるようにする。APIとして時刻を受け取るエンドポイントを作るか、時刻設定用のデータベースを設置し、アプリケーション側から接続・編集できるようにする。&lt;/font&gt;&lt;/p&gt;&lt;p&gt;&lt;font style=&quot;font-size: 24px;&quot;&gt;&lt;u&gt;クラスタリング依頼&lt;/u&gt;&lt;/font&gt;&lt;/p&gt;&lt;p&gt;アラームの設定時刻をもとに、ユーザーをクラスタリングするようにFlaskアプリケーション側に通知する。&lt;/p&gt;&lt;p&gt;&lt;font style=&quot;font-size: 24px;&quot;&gt;&lt;u&gt;ルートユーザー起床依頼&lt;/u&gt;&lt;/font&gt;&lt;/p&gt;&lt;p&gt;&lt;font style=&quot;font-size: 12px;&quot;&gt;各クラスターに設定された起床時刻(middle_wakeup_time)になると、FlaskAPI側にルートユーザーを起こすことを通知、&lt;br&gt;ここで初めてFlaskAPI側の木構造をたどってユーザーを起こしていくプログラムが起動&lt;/font&gt;&lt;/p&gt;" style="text;html=1;strokeColor=none;fillColor=none;spacing=5;spacingTop=-20;whiteSpace=wrap;overflow=hidden;rounded=0;" parent="1" vertex="1">
          <mxGeometry x="840" y="1725" width="350" height="450" as="geometry" />
        </mxCell>
        <mxCell id="0Mkexgjhdi5pAAIHoYmi-2" value="" style="rounded=0;whiteSpace=wrap;html=1;" vertex="1" parent="1">
          <mxGeometry x="1960" y="535" width="1000" height="610" as="geometry" />
        </mxCell>
        <mxCell id="0Mkexgjhdi5pAAIHoYmi-3" value="&lt;b&gt;&lt;font style=&quot;font-size: 30px;&quot;&gt;Flask App&lt;/font&gt;&lt;/b&gt;" style="rounded=0;whiteSpace=wrap;html=1;" vertex="1" parent="1">
          <mxGeometry x="1960" y="535" width="260" height="70" as="geometry" />
        </mxCell>
        <mxCell id="0Mkexgjhdi5pAAIHoYmi-4" value="&lt;h1&gt;&lt;span style=&quot;font-size: 35px;&quot;&gt;目的&lt;/span&gt;&lt;/h1&gt;&lt;p&gt;&lt;span style=&quot;font-size: 24px;&quot;&gt;会員登録、時刻設定、クラスタリング、ツリーの構築、ユーザーを起床させるなどのシステムの中核部分を担当&lt;/span&gt;&lt;/p&gt;" style="text;html=1;strokeColor=none;fillColor=none;spacing=5;spacingTop=-20;whiteSpace=wrap;overflow=hidden;rounded=0;" vertex="1" parent="1">
          <mxGeometry x="2000" y="635" width="350" height="260" as="geometry" />
        </mxCell>
        <mxCell id="0Mkexgjhdi5pAAIHoYmi-5" value="&lt;h1&gt;&lt;span style=&quot;font-size: 35px;&quot;&gt;環境&lt;/span&gt;&lt;/h1&gt;&lt;p&gt;&lt;span style=&quot;font-size: 24px;&quot;&gt;flask,react,docker&lt;br&gt;&lt;/span&gt;&lt;/p&gt;" style="text;html=1;strokeColor=none;fillColor=none;spacing=5;spacingTop=-20;whiteSpace=wrap;overflow=hidden;rounded=0;" vertex="1" parent="1">
          <mxGeometry x="2000" y="905" width="350" height="200" as="geometry" />
        </mxCell>
        <mxCell id="0Mkexgjhdi5pAAIHoYmi-6" value="&lt;h1&gt;&lt;span style=&quot;font-size: 35px;&quot;&gt;仕様&lt;/span&gt;&lt;/h1&gt;&lt;p&gt;&lt;font style=&quot;font-size: 24px;&quot;&gt;&lt;u&gt;起動時刻設定&lt;/u&gt;&lt;/font&gt;&lt;/p&gt;&lt;p&gt;&lt;font style=&quot;font-size: 12px;&quot;&gt;アプリケーション側から定期実行の時刻を編集できるようにする。APIとして時刻を受け取るエンドポイントを作るか、時刻設定用のデータベースを設置し、アプリケーション側から接続・編集できるようにする。&lt;/font&gt;&lt;/p&gt;&lt;p&gt;&lt;font style=&quot;font-size: 24px;&quot;&gt;&lt;u&gt;クラスタリング依頼&lt;/u&gt;&lt;/font&gt;&lt;/p&gt;&lt;p&gt;アラームの設定時刻をもとに、ユーザーをクラスタリングするようにFlaskアプリケーション側に通知する。&lt;/p&gt;&lt;p&gt;&lt;font style=&quot;font-size: 24px;&quot;&gt;&lt;u&gt;ルートユーザー起床依頼&lt;/u&gt;&lt;/font&gt;&lt;/p&gt;&lt;p&gt;&lt;font style=&quot;font-size: 12px;&quot;&gt;各クラスターに設定された起床時刻(middle_wakeup_time)になると、FlaskAPI側にルートユーザーを起こすことを通知、&lt;br&gt;ここで初めてFlaskAPI側の木構造をたどってユーザーを起こしていくプログラムが起動&lt;/font&gt;&lt;/p&gt;" style="text;html=1;strokeColor=none;fillColor=none;spacing=5;spacingTop=-20;whiteSpace=wrap;overflow=hidden;rounded=0;" vertex="1" parent="1">
          <mxGeometry x="2490" y="635" width="350" height="450" as="geometry" />
        </mxCell>
        <mxCell id="0Mkexgjhdi5pAAIHoYmi-7" value="" style="html=1;shadow=0;dashed=0;align=center;verticalAlign=middle;shape=mxgraph.arrows2.arrow;dy=0.6;dx=40;direction=south;notch=0;rotation=40;" vertex="1" parent="1">
          <mxGeometry x="1770" y="1145" width="70" height="995" as="geometry" />
        </mxCell>
        <mxCell id="0Mkexgjhdi5pAAIHoYmi-9" value="" style="html=1;shadow=0;dashed=0;align=center;verticalAlign=middle;shape=mxgraph.arrows2.arrow;dy=0.6;dx=40;direction=south;notch=0;" vertex="1" parent="1">
          <mxGeometry x="580" y="1230" width="70" height="340" as="geometry" />
        </mxCell>
        <mxCell id="0Mkexgjhdi5pAAIHoYmi-11" value="" style="html=1;shadow=0;dashed=0;align=center;verticalAlign=middle;shape=mxgraph.arrows2.arrow;dy=0.6;dx=40;direction=south;notch=0;rotation=-140;" vertex="1" parent="1">
          <mxGeometry x="1680" y="1070" width="70" height="995" as="geometry" />
        </mxCell>
        <mxCell id="0Mkexgjhdi5pAAIHoYmi-13" value="&lt;h1&gt;&lt;span style=&quot;font-weight: 400;&quot;&gt;&lt;u&gt;①各デバイスへアラームを通知&lt;/u&gt;&lt;/span&gt;&lt;/h1&gt;&lt;p&gt;&lt;font style=&quot;font-size: 20px;&quot;&gt;divice_idを渡してアラームを鳴らす依頼を行う。&lt;/font&gt;&lt;/p&gt;&lt;p&gt;&lt;font style=&quot;font-size: 24px;&quot;&gt;&lt;u&gt;②木の成長度を通知&lt;/u&gt;&lt;/font&gt;&lt;/p&gt;&lt;p&gt;&lt;font style=&quot;font-size: 20px;&quot;&gt;アラームの設定時刻をもとに、ユーザーをクラスタリングするようにFlaskアプリケーション側に通知する。&lt;/font&gt;&lt;/p&gt;&lt;p&gt;&lt;font style=&quot;font-size: 24px;&quot;&gt;&lt;u&gt;ルートユーザー起床依頼&lt;/u&gt;&lt;/font&gt;&lt;/p&gt;&lt;p style=&quot;font-size: 20px;&quot;&gt;&lt;font style=&quot;font-size: 20px;&quot;&gt;各クラスターに設定された起床時刻(middle_wakeup_time)になると、FlaskAPI側にルートユーザーを起こすことを通知、&lt;br&gt;ここで初めてFlaskAPI側の木構造をたどってユーザーを起こしていくプログラムが起動&lt;/font&gt;&lt;/p&gt;" style="text;html=1;strokeColor=none;fillColor=none;spacing=5;spacingTop=-20;whiteSpace=wrap;overflow=hidden;rounded=0;" vertex="1" parent="1">
          <mxGeometry x="1905" y="1680" width="455" height="435" as="geometry" />
        </mxCell>
        <mxCell id="0Mkexgjhdi5pAAIHoYmi-14" value="" style="html=1;shadow=0;dashed=0;align=center;verticalAlign=middle;shape=mxgraph.arrows2.arrow;dy=0.6;dx=40;flipH=1;notch=0;" vertex="1" parent="1">
          <mxGeometry x="1350" y="735" width="580" height="70" as="geometry" />
        </mxCell>
        <mxCell id="0Mkexgjhdi5pAAIHoYmi-15" value="" style="html=1;shadow=0;dashed=0;align=center;verticalAlign=middle;shape=mxgraph.arrows2.arrow;dy=0.6;dx=40;flipH=1;notch=0;rotation=-180;" vertex="1" parent="1">
          <mxGeometry x="1360" y="875" width="580" height="70" as="geometry" />
        </mxCell>
        <mxCell id="0Mkexgjhdi5pAAIHoYmi-16" value="&lt;h1&gt;&lt;u style=&quot;background-color: initial; font-weight: normal;&quot;&gt;ルートユーザー起床依頼&lt;/u&gt;&lt;br&gt;&lt;/h1&gt;&lt;p style=&quot;font-size: 20px;&quot;&gt;&lt;font style=&quot;font-size: 20px;&quot;&gt;各クラスターに設定された起床時刻(middle_wakeup_time)になると、FlaskAPI側にルートユーザーを起こすことを通知、&lt;br&gt;ここで初めてFlaskAPI側の木構造をたどってユーザーを起こしていくプログラムが起動&lt;/font&gt;&lt;/p&gt;" style="text;html=1;strokeColor=none;fillColor=none;spacing=5;spacingTop=-20;whiteSpace=wrap;overflow=hidden;rounded=0;" vertex="1" parent="1">
          <mxGeometry x="1440" y="525" width="455" height="210" as="geometry" />
        </mxCell>
        <mxCell id="0Mkexgjhdi5pAAIHoYmi-17" value="&lt;h1&gt;&lt;u style=&quot;background-color: initial; font-weight: normal;&quot;&gt;クラスタリング依頼&lt;/u&gt;&lt;br&gt;&lt;/h1&gt;&lt;p style=&quot;font-size: 20px;&quot;&gt;深夜（午前３時ごろ）にユーザー設定をもとにクラスタリングand木の構築を依頼&lt;/p&gt;&lt;p style=&quot;font-size: 20px;&quot;&gt;各クラスターのルートユーザーとその時刻をjson形式で受け取る。&lt;/p&gt;" style="text;html=1;strokeColor=none;fillColor=none;spacing=5;spacingTop=-20;whiteSpace=wrap;overflow=hidden;rounded=0;" vertex="1" parent="1">
          <mxGeometry x="1450" y="959" width="455" height="210" as="geometry" />
        </mxCell>
        <mxCell id="0Mkexgjhdi5pAAIHoYmi-18" value="&lt;h1&gt;&lt;u style=&quot;background-color: initial; font-weight: normal;&quot;&gt;ユーザー起床通知&lt;/u&gt;&lt;br&gt;&lt;/h1&gt;&lt;p style=&quot;font-size: 20px;&quot;&gt;デバイスシャドウを参照し、ユーザーが起きたことを検知し、device_idを通知する&lt;/p&gt;" style="text;html=1;strokeColor=none;fillColor=none;spacing=5;spacingTop=-20;whiteSpace=wrap;overflow=hidden;rounded=0;" vertex="1" parent="1">
          <mxGeometry x="1280" y="1360" width="455" height="210" as="geometry" />
        </mxCell>
      </root>
    </mxGraphModel>
  </diagram>
</mxfile>
